<?xml version="1.0" encoding="UTF-8"?>
<!DOCTYPE svg PUBLIC "-//W3C//DTD SVG 1.0//EN" "http://www.w3.org/TR/2001/REC-SVG-20010904/DTD/svg10.dtd">
<svg xmlns="http://www.w3.org/2000/svg" xml:space="preserve" width="2000px" height="890px" version="1.0"
    shape-rendering="geometricPrecision" text-rendering="geometricPrecision" image-rendering="optimizeQuality"
    fill-rule="evenodd" clip-rule="evenodd" viewBox="0 0 1614 718" xmlns:xlink="http://www.w3.org/1999/xlink">
    <g id="imagotipoUNLuPAW">
        <rect fill="none" width="1614" height="718" />
        <g id="isotipoUNLuPAW">
            <path fill="#02454E"
                d="M125 116l120 0c3,0 5,2 5,5l0 313c0,3 -2,5 -5,5l-120 0c-3,0 -5,-2 -5,-5l0 -313c0,-3 2,-5 5,-5z" />
            <path fill="#02454E"
                d="M276 116l120 0c3,0 5,2 5,5l0 313c0,3 -2,5 -5,5l-120 0c-3,0 -5,-2 -5,-5l0 -313c0,-3 2,-5 5,-5z" />
            <path fill="#E5273C"
                d="M152 167l105 0c3,0 5,2 5,5l0 6c0,3 -2,5 -5,5l-105 0c-3,0 -5,-2 -5,-5l0 -6c0,-3 2,-5 5,-5z" />
            <path fill="#11A7E0"
                d="M265 226l105 0c3,0 5,2 5,5l0 6c0,3 -2,5 -5,5l-105 0c-3,0 -5,-2 -5,-5l0 -6c0,-3 2,-5 5,-5z" />
            <path fill="#11A7E0"
                d="M265 255l105 0c3,0 5,2 5,5l0 6c0,3 -2,5 -5,5l-105 0c-3,0 -5,-2 -5,-5l0 -6c0,-3 2,-5 5,-5z" />
            <path fill="#FFC13D"
                d="M157 314l211 0c3,0 5,2 5,5l0 6c0,3 -2,5 -5,5l-211 0c-3,0 -5,-2 -5,-5l0 -6c0,-3 2,-5 5,-5z" />
            <path fill="#FFC13D"
                d="M157 343l211 0c3,0 5,2 5,5l0 6c0,3 -2,5 -5,5l-211 0c-3,0 -5,-2 -5,-5l0 -6c0,-3 2,-5 5,-5z" />
            <path fill="#FFC13D"
                d="M157 371l211 0c3,0 5,2 5,5l0 6c0,3 -2,5 -5,5l-211 0c-3,0 -5,-2 -5,-5l0 -6c0,-3 2,-5 5,-5z" />
        </g>
        <g id="logotipoUNLuPAW">
            <path fill="#000" fill-rule="nonzero"
                d="M510 247c31,0 52,-16 52,-53l0 -77 -33 0 0 78c0,15 -7,22 -19,22 -11,0 -19,-7 -19,-23l0 -78 -33 0 0 77c0,36 21,53 52,53z" />
            <polygon id="_1" fill="#000" fill-rule="nonzero"
                points="609,245 641,245 641,177 686,245 715,245 715,117 683,117 683,181 640,117 609,117 " />
            <polygon id="_2" fill="#000" fill-rule="nonzero"
                points="762,245 846,245 846,215 795,215 795,117 762,117 " />
            <path id="_3" fill="#000" fill-rule="nonzero"
                d="M914 247c13,0 21,-7 26,-15l0 13 32 0 0 -99 -32 0 0 58c0,9 -5,14 -12,14 -7,0 -11,-5 -11,-14l0 -58 -32 0 0 68c0,20 11,33 29,33z" />
            <path id="_4" fill="#000" fill-rule="nonzero"
                d="M1062 245l33 0 0 -37 13 0c28,0 50,-15 50,-46l0 -1c0,-29 -20,-44 -50,-44l-46 0 0 128zm33 -64l0 -36 11 0c12,0 19,6 19,18l0 1c0,11 -7,18 -18,18l-12 0z" />
            <path id="_5" fill="#000" fill-rule="nonzero"
                d="M1179 245l34 0 7 -23 40 0 8 23 35 0 -45 -129 -33 0 -45 129zm49 -49l12 -38 12 38 -24 0z" />
            <polygon id="_6" fill="#000" fill-rule="nonzero"
                points="1356,245 1387,245 1407,175 1428,245 1458,245 1494,117 1460,117 1442,191 1422,116 1393,116 1373,191 1355,117 1321,117 " />
            <polygon fill="#000" fill-rule="nonzero"
                points="152,552 173,552 173,541 120,541 120,552 141,552 141,606 152,606 " />
            <path id="_1_0" fill="#000" fill-rule="nonzero"
                d="M184 587c0,-3 0,-6 1,-8 1,-2 2,-4 3,-6 1,-2 3,-3 5,-4 2,-1 4,-1 7,-1l1 0 0 -12c-4,0 -8,1 -11,3 -3,2 -5,5 -7,9l0 -11 -11 0 0 49 11 0 0 -19z" />
            <path id="_2_1" fill="#000" fill-rule="nonzero"
                d="M246 606l0 -29c0,-7 -2,-12 -5,-15 -4,-4 -9,-5 -16,-5 -4,0 -7,0 -10,1 -3,1 -6,2 -8,3l3 9c2,-1 4,-2 7,-2 2,-1 5,-1 7,-1 4,0 7,1 9,3 2,2 3,4 3,8l0 1c-2,-1 -4,-1 -6,-1 -2,0 -5,-1 -8,-1 -3,0 -5,0 -8,1 -2,1 -5,2 -6,3 -2,1 -3,3 -4,5 -1,2 -1,4 -1,7l0 0c0,2 0,5 1,7 1,2 2,3 4,5 2,1 3,2 6,3 2,1 4,1 7,1 4,0 7,-1 9,-2 3,-1 5,-3 6,-5l0 6 11 0zm-11 -18c0,2 0,3 -1,4 -1,1 -2,2 -3,3 -1,1 -3,2 -4,2 -2,0 -3,1 -5,1 -3,0 -5,-1 -7,-2 -2,-1 -3,-3 -3,-5l0 0c0,-3 1,-4 3,-6 2,-1 5,-2 8,-2 2,0 4,0 6,1 2,0 4,1 5,1l0 3z" />
            <path id="_3_2" fill="#000" fill-rule="nonzero"
                d="M306 581c0,-4 -1,-8 -2,-11 -1,-3 -3,-6 -5,-8 -2,-2 -5,-4 -7,-5 -3,-1 -6,-2 -8,-2 -4,0 -7,1 -10,3 -3,2 -5,4 -7,7l0 -27 -11 0 0 68 11 0 0 -8c2,2 4,4 7,6 3,2 6,3 10,3 3,0 6,-1 8,-2 3,-1 5,-3 7,-5 2,-2 4,-5 5,-8 1,-3 2,-7 2,-11zm-11 0c0,2 0,5 -1,7 -1,2 -2,4 -3,5 -1,1 -3,2 -4,3 -2,1 -4,1 -5,1 -2,0 -4,0 -5,-1 -2,-1 -3,-2 -5,-3 -1,-1 -2,-3 -3,-5 -1,-2 -1,-4 -1,-7 0,-2 0,-5 1,-6 1,-2 2,-4 3,-5 1,-1 3,-2 5,-3 2,-1 4,-1 5,-1 2,0 4,0 5,1 2,1 3,2 4,3 1,1 2,3 3,5 1,2 1,4 1,7z" />
            <path id="_4_3" fill="#000" fill-rule="nonzero"
                d="M355 606l0 -29c0,-7 -2,-12 -5,-15 -4,-4 -9,-5 -16,-5 -4,0 -7,0 -10,1 -3,1 -6,2 -8,3l3 9c2,-1 4,-2 7,-2 2,-1 5,-1 7,-1 4,0 7,1 9,3 2,2 3,4 3,8l0 1c-2,-1 -4,-1 -6,-1 -2,0 -5,-1 -8,-1 -3,0 -5,0 -8,1 -2,1 -5,2 -6,3 -2,1 -3,3 -4,5 -1,2 -1,4 -1,7l0 0c0,2 0,5 1,7 1,2 2,3 4,5 2,1 3,2 6,3 2,1 4,1 7,1 4,0 7,-1 9,-2 3,-1 5,-3 6,-5l0 6 11 0zm-11 -18c0,2 0,3 -1,4 -1,1 -2,2 -3,3 -1,1 -3,2 -4,2 -2,0 -3,1 -5,1 -3,0 -5,-1 -7,-2 -2,-1 -3,-3 -3,-5l0 0c0,-3 1,-4 3,-6 2,-1 5,-2 8,-2 2,0 4,0 6,1 2,0 4,1 5,1l0 3z" />
            <path id="_5_4" fill="#000" fill-rule="nonzero"
                d="M377 549l0 -11 -12 0 0 11 12 0zm-12 8l0 49c0,2 0,4 -1,5 -1,1 -2,1 -4,1 -1,0 -2,0 -3,0l0 9c1,0 2,0 3,0 1,0 2,0 3,0 5,0 8,-1 11,-3 2,-2 4,-6 4,-11l0 -50 -11 0z" />
            <path id="_6_5" fill="#000" fill-rule="nonzero"
                d="M429 606l0 -29c0,-7 -2,-12 -5,-15 -4,-4 -9,-5 -16,-5 -4,0 -7,0 -10,1 -3,1 -6,2 -8,3l3 9c2,-1 4,-2 7,-2 2,-1 5,-1 7,-1 4,0 7,1 9,3 2,2 3,4 3,8l0 1c-2,-1 -4,-1 -6,-1 -2,0 -5,-1 -8,-1 -3,0 -5,0 -8,1 -2,1 -5,2 -6,3 -2,1 -3,3 -4,5 -1,2 -1,4 -1,7l0 0c0,2 0,5 1,7 1,2 2,3 4,5 2,1 3,2 6,3 2,1 4,1 7,1 4,0 7,-1 9,-2 3,-1 5,-3 6,-5l0 6 11 0zm-11 -18c0,2 0,3 -1,4 -1,1 -2,2 -3,3 -1,1 -3,2 -4,2 -2,0 -3,1 -5,1 -3,0 -5,-1 -7,-2 -2,-1 -3,-3 -3,-5l0 0c0,-3 1,-4 3,-6 2,-1 5,-2 8,-2 2,0 4,0 6,1 2,0 4,1 5,1l0 3z" />
            <path id="_7" fill="#000" fill-rule="nonzero"
                d="M450 578c0,-4 1,-7 3,-9 2,-2 5,-3 8,-3 3,0 6,1 8,3 2,2 3,5 3,9l0 28 11 0 0 -31c0,-6 -2,-10 -5,-14 -3,-3 -7,-5 -13,-5 -2,0 -4,0 -5,1 -2,0 -3,1 -4,2 -1,1 -2,2 -3,3 -1,1 -2,2 -3,3l0 -8 -11 0 0 49 11 0 0 -28z" />
            <path id="_8" fill="#000" fill-rule="nonzero"
                d="M540 606l0 -68 -11 0 0 26c-2,-2 -4,-4 -7,-6 -3,-2 -6,-3 -10,-3 -3,0 -6,1 -8,2 -3,1 -5,3 -7,5 -2,2 -4,5 -5,8 -1,3 -2,7 -2,11 0,4 1,8 2,11 1,3 3,6 5,8 2,2 5,4 7,5 3,1 6,2 8,2 4,0 7,-1 10,-3 3,-2 5,-4 7,-6l0 8 11 0zm-11 -24c0,2 0,5 -1,7 -1,2 -2,4 -3,5 -1,1 -3,2 -5,3 -2,1 -4,1 -5,1 -2,0 -4,0 -5,-1 -2,-1 -3,-2 -4,-3 -1,-1 -2,-3 -3,-5 -1,-2 -1,-4 -1,-7 0,-2 0,-5 1,-7 1,-2 2,-4 3,-5 1,-1 3,-2 4,-3 2,-1 3,-1 5,-1 2,0 4,0 5,1 2,1 3,2 5,3 1,1 2,3 3,5 1,2 1,4 1,6z" />
            <path id="_9" fill="#000" fill-rule="nonzero"
                d="M600 581c0,-4 -1,-7 -2,-10 -1,-3 -3,-6 -5,-8 -2,-2 -5,-4 -8,-5 -3,-1 -7,-2 -10,-2 -4,0 -7,1 -10,2 -3,1 -6,3 -8,6 -2,2 -4,5 -5,8 -1,3 -2,6 -2,10 0,4 1,7 2,10 1,3 3,6 5,8 2,2 5,4 8,5 3,1 7,2 10,2 4,0 7,-1 10,-2 3,-1 6,-3 8,-6 2,-2 4,-5 5,-8 1,-3 2,-6 2,-10zm-11 0c0,2 0,4 -1,6 -1,2 -2,4 -3,5 -1,1 -3,3 -5,3 -2,1 -4,1 -6,1 -2,0 -4,0 -6,-1 -2,-1 -3,-2 -5,-3 -1,-1 -2,-3 -3,-5 -1,-2 -1,-4 -1,-6 0,-2 0,-4 1,-6 1,-2 2,-4 3,-5 1,-1 3,-3 5,-3 2,-1 4,-1 6,-1 2,0 4,0 6,1 2,1 3,2 5,3 1,1 2,3 3,5 1,2 1,4 1,6z" />
            <path id="_10" fill="#000" fill-rule="nonzero"
                d="M648 549l0 -11 -12 0 0 11 12 0zm-12 8l0 49c0,2 0,4 -1,5 -1,1 -2,1 -4,1 -1,0 -2,0 -3,0l0 9c1,0 2,0 3,0 1,0 2,0 3,0 5,0 8,-1 11,-3 2,-2 4,-6 4,-11l0 -50 -11 0z" />
            <path id="_11" fill="#000" fill-rule="nonzero"
                d="M690 584c0,4 -1,7 -3,9 -2,2 -5,3 -8,3 -3,0 -6,-1 -8,-3 -2,-2 -3,-5 -3,-9l0 -28 -11 0 0 31c0,6 2,10 5,14 3,3 7,5 13,5 4,0 7,-1 9,-3 2,-2 4,-4 6,-6l0 8 11 0 0 -49 -11 0 0 28z" />
            <path id="_12" fill="#000" fill-rule="nonzero"
                d="M723 578c0,-4 1,-7 3,-9 2,-2 5,-3 8,-3 3,0 6,1 8,3 2,2 3,5 3,9l0 28 11 0 0 -31c0,-6 -2,-10 -5,-14 -3,-3 -7,-5 -13,-5 -2,0 -4,0 -5,1 -2,0 -3,1 -4,2 -1,1 -2,2 -3,3 -1,1 -2,2 -3,3l0 -8 -11 0 0 49 11 0 0 -28z" />
            <path id="_13" fill="#000" fill-rule="nonzero"
                d="M779 566l13 0 0 -10 -13 0 0 -13 -11 0 0 13 -6 0 0 10 6 0 0 26c0,3 0,5 1,7 1,2 2,3 3,4 1,1 3,2 5,2 2,0 4,1 6,1 2,0 4,0 6,-1 2,0 3,-1 5,-2l0 -9c-2,1 -5,2 -7,2 -2,0 -3,0 -4,-1 -1,-1 -2,-3 -2,-5l0 -24z" />
            <path id="_14" fill="#000" fill-rule="nonzero"
                d="M848 581c0,-4 -1,-7 -2,-10 -1,-3 -3,-6 -5,-8 -2,-2 -5,-4 -8,-5 -3,-1 -7,-2 -10,-2 -4,0 -7,1 -10,2 -3,1 -6,3 -8,6 -2,2 -4,5 -5,8 -1,3 -2,6 -2,10 0,4 1,7 2,10 1,3 3,6 5,8 2,2 5,4 8,5 3,1 7,2 10,2 4,0 7,-1 10,-2 3,-1 6,-3 8,-6 2,-2 4,-5 5,-8 1,-3 2,-6 2,-10zm-11 0c0,2 0,4 -1,6 -1,2 -2,4 -3,5 -1,1 -3,3 -5,3 -2,1 -4,1 -6,1 -2,0 -4,0 -6,-1 -2,-1 -3,-2 -5,-3 -1,-1 -2,-3 -3,-5 -1,-2 -1,-4 -1,-6 0,-2 0,-4 1,-6 1,-2 2,-4 3,-5 1,-1 3,-3 5,-3 2,-1 4,-1 6,-1 2,0 4,0 6,1 2,1 3,2 5,3 1,1 2,3 3,5 1,2 1,4 1,6z" />
            <path id="_15" fill="#000" fill-rule="nonzero"
                d="M891 591l0 0c0,-2 0,-4 -1,-6 -1,-2 -2,-3 -4,-4 -1,-1 -3,-2 -5,-3 -2,-1 -4,-1 -5,-2 -1,0 -3,-1 -4,-1 -1,0 -3,-1 -4,-1 -1,-1 -2,-1 -2,-2 -1,-1 -1,-1 -1,-2l0 0c0,-1 1,-3 2,-4 1,-1 3,-1 5,-1 2,0 4,0 7,1 2,1 5,2 7,3l4 -8c-3,-2 -5,-3 -9,-4 -3,-1 -6,-1 -9,-1 -2,0 -5,0 -7,1 -2,1 -4,2 -6,3 -2,1 -3,3 -4,5 -1,2 -1,4 -1,6l0 0c0,2 0,4 1,6 1,2 2,3 4,4 1,1 3,2 5,3 2,1 4,1 5,2 1,0 3,1 4,1 1,0 3,1 4,1 1,1 2,1 2,2 1,1 1,1 1,2l0 0c0,2 -1,3 -2,4 -1,1 -3,1 -6,1 -3,0 -5,-1 -8,-2 -3,-1 -5,-3 -8,-4l-5 8c3,2 6,4 10,5 4,1 7,2 11,2 3,0 5,0 7,-1 2,-1 4,-2 6,-3 2,-1 3,-3 4,-5 1,-2 1,-4 1,-7z" />
            <path id="_16" fill="#000" fill-rule="nonzero"
                d="M977 581c0,-4 -1,-8 -2,-11 -1,-3 -3,-6 -5,-8 -2,-2 -5,-4 -7,-5 -3,-1 -6,-2 -8,-2 -4,0 -7,1 -10,3 -3,2 -5,4 -7,7l0 -8 -11 0 0 64 11 0 0 -22c2,2 4,4 7,6 3,2 6,3 10,3 3,0 6,-1 8,-2 3,-1 5,-3 7,-5 2,-2 4,-5 5,-8 1,-3 2,-7 2,-11zm-11 0c0,2 0,5 -1,7 -1,2 -2,4 -3,5 -1,1 -3,2 -4,3 -2,1 -4,1 -5,1 -2,0 -4,0 -5,-1 -2,-1 -3,-2 -5,-3 -1,-1 -2,-3 -3,-5 -1,-2 -1,-4 -1,-7 0,-2 0,-5 1,-6 1,-2 2,-4 3,-5 1,-1 3,-2 5,-3 2,-1 4,-1 5,-1 2,0 4,0 5,1 2,1 3,2 4,3 1,1 2,3 3,5 1,2 1,4 1,7z" />
            <path id="_17" fill="#000" fill-rule="nonzero"
                d="M1026 606l0 -29c0,-7 -2,-12 -5,-15 -4,-4 -9,-5 -16,-5 -4,0 -7,0 -10,1 -3,1 -6,2 -8,3l3 9c2,-1 4,-2 7,-2 2,-1 5,-1 7,-1 4,0 7,1 9,3 2,2 3,4 3,8l0 1c-2,-1 -4,-1 -6,-1 -2,0 -5,-1 -8,-1 -3,0 -5,0 -8,1 -2,1 -5,2 -6,3 -2,1 -3,3 -4,5 -1,2 -1,4 -1,7l0 0c0,2 0,5 1,7 1,2 2,3 4,5 2,1 3,2 6,3 2,1 4,1 7,1 4,0 7,-1 9,-2 3,-1 5,-3 6,-5l0 6 11 0zm-11 -18c0,2 0,3 -1,4 -1,1 -2,2 -3,3 -1,1 -3,2 -4,2 -2,0 -3,1 -5,1 -3,0 -5,-1 -7,-2 -2,-1 -3,-3 -3,-5l0 0c0,-3 1,-4 3,-6 2,-1 5,-2 8,-2 2,0 4,0 6,1 2,0 4,1 5,1l0 3z" />
            <path id="_18" fill="#000" fill-rule="nonzero"
                d="M1046 587c0,-3 0,-6 1,-8 1,-2 2,-4 3,-6 1,-2 3,-3 5,-4 2,-1 4,-1 7,-1l1 0 0 -12c-4,0 -8,1 -11,3 -3,2 -5,5 -7,9l0 -11 -11 0 0 49 11 0 0 -19z" />
            <path id="_19" fill="#000" fill-rule="nonzero"
                d="M1108 606l0 -29c0,-7 -2,-12 -5,-15 -4,-4 -9,-5 -16,-5 -4,0 -7,0 -10,1 -3,1 -6,2 -8,3l3 9c2,-1 4,-2 7,-2 2,-1 5,-1 7,-1 4,0 7,1 9,3 2,2 3,4 3,8l0 1c-2,-1 -4,-1 -6,-1 -2,0 -5,-1 -8,-1 -3,0 -5,0 -8,1 -2,1 -5,2 -6,3 -2,1 -3,3 -4,5 -1,2 -1,4 -1,7l0 0c0,2 0,5 1,7 1,2 2,3 4,5 2,1 3,2 6,3 2,1 4,1 7,1 4,0 7,-1 9,-2 3,-1 5,-3 6,-5l0 6 11 0zm-11 -18c0,2 0,3 -1,4 -1,1 -2,2 -3,3 -1,1 -3,2 -4,2 -2,0 -3,1 -5,1 -3,0 -5,-1 -7,-2 -2,-1 -3,-3 -3,-5l0 0c0,-3 1,-4 3,-6 2,-1 5,-2 8,-2 2,0 4,0 6,1 2,0 4,1 5,1l0 3z" />
            <path id="_20" fill="#000" fill-rule="nonzero"
                d="M1189 598l-7 -7c-2,2 -4,3 -6,4 -2,1 -4,2 -7,2 -2,0 -4,0 -6,-1 -2,-1 -3,-2 -5,-3 -1,-1 -2,-3 -3,-5 -1,-2 -1,-4 -1,-6 0,-2 0,-4 1,-6 1,-2 2,-4 3,-5 1,-1 3,-3 4,-3 2,-1 4,-1 6,-1 3,0 5,1 7,2 2,1 4,3 6,4l7 -8c-2,-3 -5,-5 -8,-6 -3,-2 -7,-2 -12,-2 -4,0 -7,1 -10,2 -3,1 -6,3 -8,6 -2,2 -4,5 -5,8 -1,3 -2,6 -2,10 0,4 1,7 2,10 1,3 3,6 5,8 2,2 5,4 8,5 3,1 6,2 10,2 5,0 9,-1 12,-3 3,-2 6,-4 8,-7z" />
            <path id="_21" fill="#000" fill-rule="nonzero"
                d="M1227 584c0,4 -1,7 -3,9 -2,2 -5,3 -8,3 -3,0 -6,-1 -8,-3 -2,-2 -3,-5 -3,-9l0 -28 -11 0 0 31c0,6 2,10 5,14 3,3 7,5 13,5 4,0 7,-1 9,-3 2,-2 4,-4 6,-6l0 8 11 0 0 -49 -11 0 0 28z" />
            <path id="_22" fill="#000" fill-rule="nonzero"
                d="M1261 549l0 -11 -12 0 0 11 12 0zm0 56l0 -49 -11 0 0 49 11 0z" />
            <path id="_23" fill="#000" fill-rule="nonzero"
                d="M1320 606l0 -68 -11 0 0 26c-2,-2 -4,-4 -7,-6 -3,-2 -6,-3 -10,-3 -3,0 -6,1 -8,2 -3,1 -5,3 -7,5 -2,2 -4,5 -5,8 -1,3 -2,7 -2,11 0,4 1,8 2,11 1,3 3,6 5,8 2,2 5,4 7,5 3,1 6,2 8,2 4,0 7,-1 10,-3 3,-2 5,-4 7,-6l0 8 11 0zm-11 -24c0,2 0,5 -1,7 -1,2 -2,4 -3,5 -1,1 -3,2 -5,3 -2,1 -4,1 -5,1 -2,0 -4,0 -5,-1 -2,-1 -3,-2 -4,-3 -1,-1 -2,-3 -3,-5 -1,-2 -1,-4 -1,-7 0,-2 0,-5 1,-7 1,-2 2,-4 3,-5 1,-1 3,-2 4,-3 2,-1 4,-1 5,-1 2,0 4,0 5,1 2,1 3,2 5,3 1,1 2,3 3,5 1,2 1,4 1,6z" />
            <path id="_24" fill="#000" fill-rule="nonzero"
                d="M1371 606l0 -29c0,-7 -2,-12 -5,-15 -4,-4 -9,-5 -16,-5 -4,0 -7,0 -10,1 -3,1 -6,2 -8,3l3 9c2,-1 4,-2 7,-2 2,-1 5,-1 7,-1 4,0 7,1 9,3 2,2 3,4 3,8l0 1c-2,-1 -4,-1 -6,-1 -2,0 -5,-1 -8,-1 -3,0 -5,0 -8,1 -2,1 -5,2 -6,3 -2,1 -3,3 -4,5 -1,2 -1,4 -1,7l0 0c0,2 0,5 1,7 1,2 2,3 4,5 2,1 3,2 6,3 2,1 4,1 7,1 4,0 7,-1 9,-2 3,-1 5,-3 6,-5l0 6 11 0zm-11 -18c0,2 0,3 -1,4 -1,1 -2,2 -3,3 -1,1 -3,2 -4,2 -2,0 -3,1 -5,1 -3,0 -5,-1 -7,-2 -2,-1 -3,-3 -3,-5l0 0c0,-3 1,-4 3,-6 2,-1 5,-2 8,-2 2,0 4,0 6,1 2,0 4,1 5,1l0 3z" />
            <path id="_25" fill="#000" fill-rule="nonzero"
                d="M1392 587c0,-3 0,-6 1,-8 1,-2 2,-4 3,-6 1,-2 3,-3 5,-4 2,-1 4,-1 7,-1l1 0 0 -12c-4,0 -8,1 -11,3 -3,2 -5,5 -7,9l0 -11 -11 0 0 49 11 0 0 -19z" />
            <path id="_26" fill="#000" fill-rule="nonzero"
                d="M1429 566l13 0 0 -10 -13 0 0 -13 -11 0 0 13 -6 0 0 10 6 0 0 26c0,3 0,5 1,7 1,2 2,3 3,4 1,1 3,2 5,2 2,0 4,1 6,1 2,0 4,0 6,-1 2,0 3,-1 5,-2l0 -9c-2,1 -5,2 -7,2 -2,0 -3,0 -4,-1 -1,-1 -2,-3 -2,-5l0 -24z" />
            <path id="_27" fill="#000" fill-rule="nonzero"
                d="M1456 585l36 0c0,-1 0,-1 0,-2 0,0 0,-1 0,-1 0,-4 -1,-7 -1,-10 -1,-3 -2,-6 -4,-8 -2,-2 -4,-4 -7,-6 -3,-1 -6,-2 -10,-2 -4,0 -7,1 -10,2 -3,1 -5,3 -8,6 -2,2 -4,5 -5,8 -1,3 -2,6 -2,10 0,4 1,7 2,10 1,3 3,6 5,8 2,2 5,4 8,5 3,1 6,2 10,2 5,0 8,-1 12,-3 3,-2 6,-4 8,-7l-7 -6c-2,2 -4,3 -6,4 -2,1 -4,1 -7,1 -4,0 -7,-1 -9,-3 -3,-2 -4,-5 -5,-9zm0 -7c0,-4 2,-7 4,-9 2,-2 5,-4 9,-4 2,0 4,0 5,1 1,1 3,2 4,3 1,1 2,3 3,4 1,2 1,3 1,5l-25 0z" />
            <path fill="#000" fill-rule="nonzero"
                d="M574 312l-22 0 0 74c0,12 -3,21 -9,27 -6,6 -14,9 -24,9 -10,0 -18,-3 -24,-9 -6,-6 -9,-15 -9,-27l0 -73 -22 0 0 74c0,9 1,17 4,24 3,7 6,13 11,18 5,5 11,8 17,11 7,2 14,4 23,4 8,0 16,-1 23,-4 7,-2 13,-6 17,-11 5,-5 8,-11 11,-18 3,-7 4,-16 4,-25l0 -73z" />
            <polygon id="_1_6" fill="#000" fill-rule="nonzero"
                points="595,440 684,440 684,420 617,420 617,312 595,312 " />
            <polygon id="_2_7" fill="#000" fill-rule="nonzero"
                points="836,386 836,440 858,440 858,312 836,312 836,365 775,365 775,312 752,312 752,440 775,440 775,386 " />
            <path id="_3_8" fill="#000" fill-rule="nonzero"
                d="M976 392c0,-7 -1,-13 -4,-20 -3,-6 -6,-11 -11,-16 -5,-5 -10,-8 -16,-11 -6,-3 -13,-4 -21,-4 -7,0 -14,1 -21,4 -6,3 -12,6 -16,11 -5,5 -8,10 -11,16 -3,6 -4,13 -4,20 0,7 1,13 4,20 3,6 6,11 11,16 5,5 10,8 16,11 6,3 13,4 20,4 7,0 14,-1 21,-4 6,-3 12,-6 16,-11 5,-5 8,-10 11,-16 3,-6 4,-13 4,-20zm-22 0c0,4 -1,8 -2,12 -1,4 -3,7 -6,10 -3,3 -6,5 -9,7 -4,2 -8,2 -12,2 -4,0 -8,-1 -12,-2 -4,-2 -7,-4 -9,-7 -3,-3 -5,-6 -6,-10 -1,-4 -2,-8 -2,-12 0,-4 1,-8 2,-12 1,-4 3,-7 6,-10 3,-3 6,-5 9,-7 4,-2 8,-2 12,-2 4,0 8,1 12,2 4,2 7,4 9,7 3,3 5,6 6,10 1,4 2,8 2,12z" />
            <path id="_4_9" fill="#000" fill-rule="nonzero"
                d="M1057 411l0 0c0,-4 -1,-8 -3,-11 -2,-3 -4,-6 -7,-8 -3,-2 -6,-4 -10,-5 -4,-1 -7,-3 -11,-4 -3,-1 -6,-2 -8,-3 -3,-1 -5,-2 -7,-3 -2,-1 -4,-2 -5,-3 -1,-1 -2,-3 -2,-4l0 0c0,-3 1,-5 4,-7 2,-2 6,-3 10,-3 4,0 8,1 13,2 5,2 9,4 14,7l9 -16c-5,-3 -11,-6 -17,-8 -6,-2 -12,-3 -18,-3 -5,0 -9,1 -13,2 -4,1 -8,3 -11,6 -3,3 -6,6 -7,9 -2,4 -3,8 -3,12l0 0c0,5 1,9 3,12 2,3 4,6 7,8 3,2 6,4 10,5 4,1 7,3 11,4 3,1 6,2 8,2 3,1 5,2 7,3 2,1 4,2 5,4 1,1 2,3 2,5l0 0c0,3 -1,6 -4,8 -3,2 -6,3 -11,3 -5,0 -10,-1 -16,-3 -5,-2 -11,-5 -16,-9l-10 15c6,5 13,8 20,11 7,2 14,4 21,4 5,0 10,-1 14,-2 4,-1 8,-3 11,-6 3,-3 6,-6 8,-9 2,-4 3,-8 3,-13z" />
            <path id="_5_10" fill="#000" fill-rule="nonzero"
                d="M1169 392c0,-8 -1,-15 -4,-21 -3,-6 -6,-12 -10,-16 -4,-4 -9,-8 -14,-10 -5,-2 -11,-3 -17,-3 -8,0 -14,2 -20,5 -5,3 -10,8 -13,13l0 -16 -22 0 0 126 22 0 0 -44c3,5 8,8 13,12 5,3 12,5 20,5 6,0 11,-1 17,-3 5,-2 10,-5 14,-10 4,-4 8,-10 10,-16 3,-6 4,-13 4,-21zm-22 0c0,5 -1,9 -2,13 -1,4 -3,7 -6,10 -3,3 -5,5 -9,6 -3,1 -7,2 -11,2 -4,0 -7,-1 -11,-2 -3,-1 -6,-4 -9,-6 -3,-3 -5,-6 -6,-10 -2,-4 -2,-8 -2,-13 0,-5 1,-9 2,-13 2,-4 4,-7 6,-10 3,-3 6,-5 9,-6 3,-1 7,-2 11,-2 4,0 7,1 11,2 3,1 6,4 9,6 3,3 4,6 6,10 1,4 2,8 2,13z" />
            <path id="_6_11" fill="#000" fill-rule="nonzero"
                d="M1205 328l0 -21 -24 0 0 21 24 0zm-1 112l0 -97 -22 0 0 97 22 0z" />
            <path id="_7_12" fill="#000" fill-rule="nonzero"
                d="M1249 362l26 0 0 -19 -26 0 0 -27 -22 0 0 27 -12 0 0 19 12 0 0 51c0,5 1,10 2,13 1,4 3,7 6,9 3,2 6,4 9,5 3,1 7,1 11,1 4,0 8,0 11,-1 3,-1 6,-2 9,-4l0 -18c-4,2 -9,3 -14,3 -4,0 -7,-1 -9,-3 -2,-2 -3,-5 -3,-9l0 -48z" />
            <path id="_8_13" fill="#000" fill-rule="nonzero"
                d="M1368 440l0 -57c0,-13 -3,-23 -10,-30 -7,-7 -18,-11 -32,-11 -8,0 -15,1 -20,2 -6,1 -11,3 -16,6l6 18c4,-2 9,-3 13,-4 4,-1 9,-2 15,-2 8,0 14,2 18,5 4,4 6,9 6,15l0 2c-4,-1 -8,-2 -12,-3 -4,-1 -9,-1 -15,-1 -6,0 -11,1 -16,2 -5,1 -9,3 -12,6 -3,3 -6,6 -8,10 -2,4 -3,8 -3,14l0 0c0,5 1,9 3,13 2,4 4,7 8,9 3,3 7,4 11,6 4,1 9,2 13,2 7,0 14,-1 19,-4 5,-3 9,-6 13,-10l0 12 22 0zm-21 -35c0,3 -1,6 -2,8 -1,3 -3,5 -5,6 -2,2 -5,3 -8,4 -3,1 -7,1 -10,1 -5,0 -10,-1 -13,-4 -4,-2 -5,-6 -5,-11l0 0c0,-5 2,-9 6,-12 4,-3 9,-4 16,-4 4,0 8,0 12,1 4,1 7,2 10,3l0 6z" />
            <polygon id="_9_14" fill="#000" fill-rule="nonzero" points="1407,440 1407,306 1385,306 1385,440 " />
            <path id="_10_15" fill="#000" fill-rule="nonzero"
                d="M1494 411l0 0c0,-4 -1,-8 -3,-11 -2,-3 -4,-6 -7,-8 -3,-2 -6,-4 -10,-5 -4,-1 -7,-3 -11,-4 -3,-1 -6,-2 -8,-3 -3,-1 -5,-2 -7,-3 -2,-1 -4,-2 -5,-3 -1,-1 -2,-3 -2,-4l0 0c0,-3 1,-5 4,-7 2,-2 6,-3 10,-3 4,0 8,1 13,2 5,2 9,4 14,7l9 -16c-5,-3 -11,-6 -17,-8 -6,-2 -12,-3 -18,-3 -5,0 -9,1 -13,2 -4,1 -8,3 -11,6 -3,3 -6,6 -7,9 -2,4 -3,8 -3,12l0 0c0,5 1,9 3,12 2,3 4,6 7,8 3,2 6,4 10,5 4,1 7,3 11,4 3,1 6,2 8,2 3,1 5,2 7,3 2,1 4,2 5,4 1,1 2,3 2,5l0 0c0,3 -1,6 -4,8 -3,2 -6,3 -11,3 -5,0 -10,-1 -16,-3 -5,-2 -11,-5 -16,-9l-10 15c6,5 13,8 20,11 7,2 14,4 21,4 5,0 10,-1 14,-2 4,-1 8,-3 11,-6 3,-3 6,-6 8,-9 2,-4 3,-8 3,-13z" />
        </g>
    </g>
</svg>