<?xml version="1.0" encoding="UTF-8"?>
<!DOCTYPE svg PUBLIC "-//W3C//DTD SVG 1.0//EN" "http://www.w3.org/TR/2001/REC-SVG-20010904/DTD/svg10.dtd">
<!-- Creator: CorelDRAW -->
<svg xmlns="http://www.w3.org/2000/svg" xml:space="preserve" width="1000px" height="1143px" version="1.0" shape-rendering="geometricPrecision" text-rendering="geometricPrecision" image-rendering="optimizeQuality" fill-rule="evenodd" clip-rule="evenodd"
viewBox="0 0 185 211"
 xmlns:xlink="http://www.w3.org/1999/xlink"
 xmlns:xodm="http://www.corel.com/coreldraw/odm/2003">
 <g id="Capa_x0020_1">
  <metadata id="CorelCorpID_0Corel-Layer"/>
  <path fill="#02454E" d="M103 0l79 0c2,0 4,2 4,4l0 204c0,2 -2,4 -4,4l-79 0c-2,0 -4,-2 -4,-4l0 -204c0,-2 2,-4 4,-4z"/>
  <path fill="#02454E" d="M4 0l79 0c2,0 4,2 4,4l0 204c0,2 -2,4 -4,4l-79 0c-2,0 -4,-2 -4,-4l0 -204c0,-2 2,-4 4,-4z"/>
  <path fill="#E5273C" d="M56 33l0 0c21,0 38,2 38,4l0 4c0,2 -17,4 -38,4l0 0c-21,0 -38,-2 -38,-4l0 -4c0,-2 17,-4 38,-4z"/>
  <path fill="#11A7E0" d="M130 72l0 0c21,0 38,2 38,4l0 4c0,2 -17,4 -38,4l0 0c-21,0 -38,-2 -38,-4l0 -4c0,-2 17,-4 38,-4z"/>
  <path fill="#11A7E0" d="M130 91l0 0c21,0 38,2 38,4l0 4c0,2 -17,4 -38,4l0 0c-21,0 -38,-2 -38,-4l0 -4c0,-2 17,-4 38,-4z"/>
  <path fill="#FFC13D" d="M93 129l0 0c40,0 72,2 72,4l0 4c0,2 -32,4 -72,4l0 0c-40,0 -72,-2 -72,-4l0 -4c0,-2 32,-4 72,-4z"/>
  <path fill="#FFC13D" d="M93 148l0 0c40,0 72,2 72,4l0 4c0,2 -32,4 -72,4l0 0c-40,0 -72,-2 -72,-4l0 -4c0,-2 32,-4 72,-4z"/>
  <path fill="#FFC13D" d="M93 167l0 0c40,0 72,2 72,4l0 4c0,2 -32,4 -72,4l0 0c-40,0 -72,-2 -72,-4l0 -4c0,-2 32,-4 72,-4z"/>
  <path fill="#02454E" d="M4 0l79 0c2,0 4,2 4,4l0 204c0,2 -2,4 -4,4l-79 0c-2,0 -4,-2 -4,-4l0 -204c0,-2 2,-4 4,-4z"/>
  <path fill="#02454E" d="M102 0l79 0c2,0 4,2 4,4l0 204c0,2 -2,4 -4,4l-79 0c-2,0 -4,-2 -4,-4l0 -204c0,-2 2,-4 4,-4z"/>
  <path fill="#E5273C" d="M21 33l69 0c2,0 4,2 4,4l0 4c0,2 -2,4 -4,4l-69 0c-2,0 -4,-2 -4,-4l0 -4c0,-2 2,-4 4,-4z"/>
  <path fill="#11A7E0" d="M95 72l69 0c2,0 4,2 4,4l0 4c0,2 -2,4 -4,4l-69 0c-2,0 -4,-2 -4,-4l0 -4c0,-2 2,-4 4,-4z"/>
  <path fill="#11A7E0" d="M95 91l69 0c2,0 4,2 4,4l0 4c0,2 -2,4 -4,4l-69 0c-2,0 -4,-2 -4,-4l0 -4c0,-2 2,-4 4,-4z"/>
  <path fill="#FFC13D" d="M24 130l138 0c2,0 4,2 4,4l0 4c0,2 -2,4 -4,4l-138 0c-2,0 -4,-2 -4,-4l0 -4c0,-2 2,-4 4,-4z"/>
  <path fill="#FFC13D" d="M24 148l138 0c2,0 4,2 4,4l0 4c0,2 -2,4 -4,4l-138 0c-2,0 -4,-2 -4,-4l0 -4c0,-2 2,-4 4,-4z"/>
  <path fill="#FFC13D" d="M24 167l138 0c2,0 4,2 4,4l0 4c0,2 -2,4 -4,4l-138 0c-2,0 -4,-2 -4,-4l0 -4c0,-2 2,-4 4,-4z"/>
 </g>
</svg>
